<svg id="SvgjsSvg1001" width="288" height="288" xmlns="http://www.w3.org/2000/svg" version="1.1" xmlns:xlink="http://www.w3.org/1999/xlink" xmlns:svgjs="http://svgjs.com/svgjs"><defs id="SvgjsDefs1002"></defs><g id="SvgjsG1008" transform="matrix(1,0,0,1,0,0)"><svg xmlns="http://www.w3.org/2000/svg" width="288" height="288" version="1.0" viewBox="0 0 820 414"><path d="M4335 3715 c-344 -54 -561 -228 -646 -515 -18 -64 -22 -107 -26 -292l-5 -218 -219 0 -219 0 0 -315 0 -315 220 0 220 0 0 -830 0 -830 330 0 330 0
0 830 0 830 295 0 294 0 5 33 c3 17 17 140 31 272 14 132 28 259 31 283 l6 42
-296 0 -297 0 3 185 c3 161 5 187 21 202 16 16 46 19 290 23 l272 5 3 313 2
312 -282 -1 c-175 -1 -314 -6 -363 -14z" transform="matrix(.1 0 0 -.1 0 414)" fill="#ffffff" class="color000 svgShape"></path></svg></g></svg>