<?xml version="1.0" standalone="no"?>
<!DOCTYPE svg PUBLIC "-//W3C//DTD SVG 20010904//EN"
 "http://www.w3.org/TR/2001/REC-SVG-20010904/DTD/svg10.dtd">
<svg version="1.0" xmlns="http://www.w3.org/2000/svg"
 width="500.000000pt" height="500.000000pt" viewBox="0 0 500.000000 500.000000"
 preserveAspectRatio="xMidYMid meet">
<metadata>
Created by potrace 1.14, written by Peter Selinger 2001-2017
</metadata>
<g transform="translate(0.000000,500.000000) scale(0.100000,-0.100000)"
fill="#000000" stroke="none">
<path d="M1934 3816 c-9 -23 -1 -48 19 -60 25 -16 52 4 52 40 0 25 -4 29 -33
32 -22 2 -34 -2 -38 -12z"/>
<path d="M2099 3737 c-24 -19 -39 -52 -34 -78 15 -79 130 -82 149 -3 11 44
-28 93 -74 93 -14 0 -32 -5 -41 -12z"/>
<path d="M2431 3698 c-27 -18 -53 -58 -112 -173 -42 -82 -88 -162 -103 -177
-14 -15 -51 -35 -82 -45 -62 -19 -55 -26 36 -36 114 -13 306 -68 433 -123 133
-59 339 -195 426 -282 12 -12 27 -1 103 75 116 114 129 132 130 186 1 57 -25
101 -71 121 -20 8 -99 25 -176 36 -169 25 -197 33 -234 71 -16 16 -62 95 -103
175 -79 158 -99 181 -170 190 -35 5 -50 1 -77 -18z"/>
<path d="M1922 3570 c-34 -21 -62 -71 -62 -111 0 -38 30 -85 68 -106 32 -17
59 -21 107 -14 19 2 64 48 75 75 44 116 -82 221 -188 156z"/>
<path d="M1845 3250 c-69 -15 -105 -59 -105 -128 0 -47 4 -53 140 -192 61 -63
118 -127 126 -142 21 -41 21 -92 -2 -213 -33 -174 -36 -212 -17 -250 17 -32
29 -44 61 -62 45 -26 87 -15 254 68 133 66 170 80 203 78 27 -2 91 -29 194
-81 168 -85 209 -94 267 -59 65 40 81 140 31 201 -12 16 -38 54 -57 86 -86
141 -236 305 -375 408 -156 116 -288 184 -475 246 -119 39 -193 51 -245 40z"/>
<path d="M1494 2001 c-2 -2 -4 -83 -4 -178 l0 -174 28 3 c26 3 27 5 27 68 l0
65 61 0 c71 1 107 23 124 72 18 52 -6 115 -51 133 -26 11 -176 20 -185 11z
m170 -67 c19 -19 21 -54 4 -77 -13 -17 -101 -27 -115 -13 -4 4 -8 29 -9 57
l-1 49 53 0 c34 0 58 -5 68 -16z"/>
<path d="M1820 2002 c-6 -2 -10 -71 -10 -178 l0 -175 28 3 c26 3 27 5 26 65
-1 59 0 61 25 65 46 6 57 -2 92 -65 30 -54 38 -62 67 -65 17 -2 32 -1 32 2 0
3 -16 32 -35 65 -19 32 -35 61 -35 63 0 3 14 20 30 38 43 48 42 100 -4 146
-19 19 -42 34 -52 35 -61 3 -155 4 -164 1z m174 -65 c23 -17 24 -62 3 -85 -12
-13 -31 -18 -74 -17 l-57 0 -1 58 -1 57 56 0 c31 0 64 -6 74 -13z"/>
<path d="M2130 1994 c0 -12 36 -106 98 -256 33 -78 39 -88 62 -88 26 0 43 36
167 346 2 6 -6 10 -19 8 -13 -1 -28 -3 -34 -3 -6 -1 -33 -62 -59 -136 -27 -74
-51 -132 -54 -130 -2 3 -28 64 -56 137 -47 123 -52 131 -78 132 -15 1 -27 -4
-27 -10z"/>
<path d="M2511 2002 c-4 -1 -6 -14 -3 -27 3 -18 11 -25 27 -25 13 0 25 -6 27
-12 3 -11 2 -205 -1 -230 -1 -5 -12 -8 -25 -8 -29 0 -39 -12 -30 -34 5 -13 23
-16 90 -16 81 0 84 1 80 23 -2 15 -12 24 -31 27 -16 3 -28 8 -27 13 1 4 2 58
2 121 l0 114 29 5 c21 5 28 11 26 24 -2 10 -4 20 -4 23 -1 5 -145 7 -160 2z"/>
<path d="M2879 2006 c-3 -3 -4 -333 -1 -343 2 -7 15 -13 28 -13 23 0 24 3 24
75 l0 75 90 0 90 0 -1 -42 c-3 -100 -1 -108 26 -108 14 0 25 6 25 13 1 22 2
261 1 303 -1 36 -4 40 -26 40 -24 0 -25 -3 -26 -65 -1 -37 -1 -71 0 -77 1 -8
-28 -12 -88 -13 l-90 -2 -3 77 c-3 72 -5 78 -25 79 -13 1 -23 1 -24 1z"/>
<path d="M3264 2001 c-2 -2 -4 -82 -4 -178 l0 -173 28 0 c26 0 27 1 25 57 -1
71 6 82 53 74 31 -5 39 -13 67 -66 28 -52 36 -60 65 -63 17 -2 32 -1 32 2 0 3
-16 32 -35 65 -19 32 -35 62 -35 64 0 3 14 19 30 37 32 34 37 66 20 117 -17
47 -59 65 -157 67 -46 0 -87 -1 -89 -3z m180 -67 c9 -8 16 -18 17 -22 0 -4 2
-15 4 -24 2 -9 -5 -25 -15 -36 -17 -18 -40 -20 -126 -13 -7 1 -11 23 -11 56
l1 55 57 0 c39 0 63 -5 73 -16z"/>
<path d="M2743 1709 c-15 -15 -4 -56 17 -62 35 -9 59 32 34 58 -18 18 -36 19
-51 4z"/>
</g>
</svg>
